<?xml version="1.0" standalone="no"?>
<!DOCTYPE svg PUBLIC "-//W3C//DTD SVG 20010904//EN"
 "http://www.w3.org/TR/2001/REC-SVG-20010904/DTD/svg10.dtd">
<svg version="1.0" xmlns="http://www.w3.org/2000/svg"
 width="262.000000pt" height="262.000000pt" viewBox="0 0 262.000000 262.000000"
 preserveAspectRatio="xMidYMid meet">

<g transform="translate(0.000000,262.000000) scale(0.100000,-0.100000)"
fill="#000000" stroke="none">
<path d="M1090 2595 c-181 -31 -349 -97 -505 -200 -167 -109 -353 -321 -448
-510 -43 -86 -90 -232 -111 -344 -21 -109 -21 -339 -1 -457 94 -538 518 -963
1057 -1059 146 -26 407 -17 540 18 517 137 888 542 974 1065 21 126 14 359
-15 482 -122 534 -555 935 -1086 1009 -101 14 -311 12 -405 -4z m460 -82 c427
-86 781 -398 921 -813 105 -308 84 -631 -60 -925 -218 -447 -660 -712 -1151
-692 -330 14 -607 139 -837 381 -170 178 -268 363 -320 609 -22 103 -24 360
-4 462 93 472 447 846 912 965 161 41 375 47 539 13z"/>
<path d="M1270 2365 c0 -22 4 -34 10 -30 6 3 10 17 10 30 0 13 -4 27 -10 30
-6 4 -10 -8 -10 -30z"/>
<path d="M1323 2365 c0 -22 2 -30 4 -17 2 12 2 30 0 40 -3 9 -5 -1 -4 -23z"/>
<path d="M1340 2365 c0 -34 1 -35 40 -35 39 0 40 1 40 35 0 34 -1 35 -40 35
-39 0 -40 -1 -40 -35z"/>
<path d="M1047 2383 c-3 -5 3 -22 14 -39 10 -16 19 -36 19 -45 0 -21 -32 -49
-56 -49 -16 0 -17 -2 -4 -10 43 -28 100 14 84 62 -10 34 -51 91 -57 81z"/>
<path d="M1378 2313 c12 -2 30 -2 40 0 9 3 -1 5 -23 4 -22 0 -30 -2 -17 -4z"/>
<path d="M1242 2270 c0 -19 2 -27 5 -17 2 9 2 25 0 35 -3 9 -5 1 -5 -18z"/>
<path d="M1262 2270 c0 -19 2 -27 5 -17 2 9 2 25 0 35 -3 9 -5 1 -5 -18z"/>
<path d="M1310 2270 c0 -23 4 -30 20 -30 16 0 20 7 20 30 0 23 -4 30 -20 30
-16 0 -20 -7 -20 -30z"/>
<path d="M1360 2265 c0 -19 5 -35 10 -35 6 0 10 16 10 35 0 19 -4 35 -10 35
-5 0 -10 -16 -10 -35z"/>
<path d="M1393 2265 c0 -22 2 -30 4 -17 2 12 2 30 0 40 -3 9 -5 -1 -4 -23z"/>
<path d="M1413 2265 c0 -22 2 -30 4 -17 2 12 2 30 0 40 -3 9 -5 -1 -4 -23z"/>
<path d="M1433 2265 c0 -22 2 -30 4 -17 2 12 2 30 0 40 -3 9 -5 -1 -4 -23z"/>
<path d="M1284 2020 c-24 -9 -94 -88 -94 -106 0 -6 7 -17 15 -24 8 -7 15 -22
15 -33 0 -20 0 -20 23 1 13 12 28 22 33 22 6 0 27 -36 49 -80 21 -44 40 -78
43 -76 2 2 -17 45 -42 95 -49 97 -53 111 -33 111 17 0 49 -35 70 -75 9 -16 16
-26 17 -22 0 4 -9 25 -20 46 -10 21 -24 60 -31 87 -14 59 -18 64 -45 54z"/>
<path d="M1861 1914 c0 -11 3 -14 6 -6 3 7 2 16 -1 19 -3 4 -6 -2 -5 -13z"/>
<path d="M1411 1910 c0 -8 4 -22 9 -30 12 -18 12 -2 0 25 -6 13 -9 15 -9 5z"/>
<path d="M1732 1870 c0 -14 2 -19 5 -12 2 6 2 18 0 25 -3 6 -5 1 -5 -13z"/>
<path d="M1500 1826 c0 -2 7 -19 15 -37 l15 -34 -2 32 c-1 18 -8 35 -15 37 -7
3 -13 4 -13 2z"/>
<path d="M1722 1805 c0 -16 2 -22 5 -12 2 9 2 23 0 30 -3 6 -5 -1 -5 -18z"/>
<path d="M1395 1790 c9 -16 18 -30 21 -30 2 0 -2 14 -11 30 -9 17 -18 30 -21
30 -2 0 2 -13 11 -30z"/>
<path d="M1297 1765 c9 -19 18 -33 21 -31 4 5 -26 66 -33 66 -3 0 3 -16 12
-35z"/>
<path d="M1767 1781 c-4 -17 -3 -21 5 -13 5 5 8 16 6 23 -3 8 -7 3 -11 -10z"/>
<path d="M1191 1772 c-7 -13 -6 -34 4 -67 8 -26 15 -69 15 -95 0 -54 22 -80
84 -100 42 -13 132 -8 150 10 6 6 -1 24 -22 52 -18 24 -46 67 -63 96 -38 64
-46 68 -17 7 12 -24 19 -47 16 -50 -12 -12 -86 16 -112 41 -27 28 -48 86 -39
110 8 20 -5 17 -16 -4z"/>
<path d="M1764 1554 c-18 -14 -18 -15 4 -4 12 6 22 13 22 15 0 8 -5 6 -26 -11z"/>
<path d="M1095 1438 c-16 -6 -36 -20 -44 -31 -9 -13 -22 -18 -42 -15 -22 3
-29 0 -33 -17 -3 -12 -16 -26 -28 -32 l-23 -11 28 -11 c16 -6 46 -11 67 -11
38 0 39 0 33 33 -7 46 21 79 69 79 27 0 35 4 31 14 -6 16 -17 17 -58 2z"/>
<path d="M1405 1440 c-3 -5 1 -10 9 -10 9 0 16 5 16 10 0 6 -4 10 -9 10 -6 0
-13 -4 -16 -10z"/>
<path d="M1325 1410 c-3 -5 1 -10 9 -10 9 0 16 5 16 10 0 6 -4 10 -9 10 -6 0
-13 -4 -16 -10z"/>
<path d="M1438 1413 c7 -3 16 -2 19 1 4 3 -2 6 -13 5 -11 0 -14 -3 -6 -6z"/>
<path d="M1405 1390 c-3 -5 -2 -10 4 -10 5 0 13 5 16 10 3 6 2 10 -4 10 -5 0
-13 -4 -16 -10z"/>
<path d="M1458 1393 c7 -3 16 -2 19 1 4 3 -2 6 -13 5 -11 0 -14 -3 -6 -6z"/>
<path d="M1724 1368 l-19 -23 23 19 c21 18 27 26 19 26 -2 0 -12 -10 -23 -22z"/>
<path d="M1248 1373 c7 -3 16 -2 19 1 4 3 -2 6 -13 5 -11 0 -14 -3 -6 -6z"/>
<path d="M1430 1370 c0 -5 5 -10 10 -10 6 0 10 5 10 10 0 6 -4 10 -10 10 -5 0
-10 -4 -10 -10z"/>
<path d="M1488 1373 c7 -3 16 -2 19 1 4 3 -2 6 -13 5 -11 0 -14 -3 -6 -6z"/>
<path d="M1320 1360 c0 -5 4 -10 9 -10 6 0 13 5 16 10 3 6 -1 10 -9 10 -9 0
-16 -4 -16 -10z"/>
<path d="M1378 1363 c7 -3 16 -2 19 1 4 3 -2 6 -13 5 -11 0 -14 -3 -6 -6z"/>
<path d="M1418 1327 l-107 -40 -46 38 c-25 21 -48 35 -51 33 -6 -7 87 -88 101
-88 16 0 199 71 209 81 21 20 -4 14 -106 -24z"/>
<path d="M1345 1340 c-3 -5 1 -10 9 -10 9 0 16 5 16 10 0 6 -4 10 -9 10 -6 0
-13 -4 -16 -10z"/>
<path d="M1408 1343 c7 -3 16 -2 19 1 4 3 -2 6 -13 5 -11 0 -14 -3 -6 -6z"/>
<path d="M1298 1333 c7 -3 16 -2 19 1 4 3 -2 6 -13 5 -11 0 -14 -3 -6 -6z"/>
<path d="M967 1169 c-46 -72 -247 -412 -245 -414 2 -1 29 -16 60 -34 l58 -32
22 45 c21 45 23 46 67 46 26 0 69 3 96 6 l50 6 29 -51 30 -50 60 34 c34 19 60
40 58 45 -2 9 -187 300 -247 389 l-23 33 -15 -23z m38 -238 l24 -49 -47 -4
c-26 -3 -48 -4 -50 -3 -3 2 40 105 44 105 2 0 15 -22 29 -49z"/>
<path d="M2107 1169 c-46 -72 -247 -412 -245 -414 2 -1 29 -16 60 -34 l58 -32
22 45 c21 45 23 46 67 46 26 0 69 3 96 6 l50 6 29 -51 30 -50 60 34 c34 19 60
40 58 45 -2 9 -187 300 -247 389 l-23 33 -15 -23z m38 -238 l24 -49 -47 -4
c-26 -3 -48 -4 -50 -3 -3 2 40 105 44 105 2 0 15 -22 29 -49z"/>
<path d="M1375 1126 c-3 -27 -2 -53 2 -57 4 -4 47 -9 94 -11 l86 -3 -104 -169
c-57 -93 -103 -170 -101 -171 2 -1 91 -5 199 -9 l197 -6 6 23 c3 12 6 39 6 60
l0 37 -99 0 -99 0 99 162 c54 89 99 165 99 170 0 4 -19 9 -42 9 -24 1 -109 4
-190 8 l-146 6 -7 -49z"/>
<path d="M433 1146 c-155 -58 -250 -179 -228 -293 10 -56 76 -117 149 -138 60
-18 216 -18 244 -1 13 8 17 131 6 174 -6 20 -12 22 -70 22 l-64 0 0 -50 c0
-45 -2 -50 -22 -50 -13 0 -38 9 -55 20 -88 53 -29 162 113 207 58 18 58 16 32
101 -11 38 -21 39 -105 8z"/>
</g>
</svg>
