<svg width="155" height="33" viewBox="0 0 155 33" fill="none" xmlns="http://www.w3.org/2000/svg">
<path d="M62.616 13.44C62.3373 12.9267 61.934 12.538 61.406 12.274C60.8927 11.9953 60.284 11.856 59.58 11.856C58.3627 11.856 57.3873 12.2593 56.654 13.066C55.9207 13.858 55.554 14.9213 55.554 16.256C55.554 17.6787 55.9353 18.7933 56.698 19.6C57.4753 20.392 58.5387 20.788 59.888 20.788C60.812 20.788 61.5893 20.5533 62.22 20.084C62.8653 19.6147 63.3347 18.94 63.628 18.06H58.854V15.288H67.038V18.786C66.7593 19.7247 66.2827 20.5973 65.608 21.404C64.948 22.2107 64.1047 22.8633 63.078 23.362C62.0513 23.8607 60.8927 24.11 59.602 24.11C58.0767 24.11 56.7127 23.78 55.51 23.12C54.322 22.4453 53.3907 21.514 52.716 20.326C52.056 19.138 51.726 17.7813 51.726 16.256C51.726 14.7307 52.056 13.374 52.716 12.186C53.3907 10.9833 54.322 10.052 55.51 9.392C56.698 8.71733 58.0547 8.38 59.58 8.38C61.428 8.38 62.9827 8.82733 64.244 9.722C65.52 10.6167 66.3633 11.856 66.774 13.44H62.616ZM78.7358 21.272H72.9718L72.0478 24H68.1098L73.6978 8.556H78.0538L83.6418 24H79.6598L78.7358 21.272ZM77.7678 18.368L75.8538 12.714L73.9618 18.368H77.7678ZM89.3465 20.92H95.9905V24H85.0785V21.14L91.6785 11.636H85.0785V8.556H95.9905V11.416L89.3465 20.92ZM108.062 21.272H102.298L101.374 24H97.436L103.024 8.556H107.38L112.968 24H108.986L108.062 21.272ZM107.094 18.368L105.18 12.714L103.288 18.368H107.094ZM124.919 24.154C123.789 24.154 122.777 23.9707 121.883 23.604C120.988 23.2373 120.269 22.6947 119.727 21.976C119.199 21.2573 118.92 20.392 118.891 19.38H122.895C122.953 19.952 123.151 20.392 123.489 20.7C123.826 20.9933 124.266 21.14 124.809 21.14C125.366 21.14 125.806 21.0153 126.129 20.766C126.451 20.502 126.613 20.1427 126.613 19.688C126.613 19.3067 126.481 18.9913 126.217 18.742C125.967 18.4927 125.652 18.2873 125.271 18.126C124.904 17.9647 124.376 17.7813 123.687 17.576C122.689 17.268 121.875 16.96 121.245 16.652C120.614 16.344 120.071 15.8893 119.617 15.288C119.162 14.6867 118.935 13.902 118.935 12.934C118.935 11.4967 119.455 10.3747 120.497 9.568C121.538 8.74667 122.895 8.336 124.567 8.336C126.268 8.336 127.639 8.74667 128.681 9.568C129.722 10.3747 130.279 11.504 130.353 12.956H126.283C126.253 12.4573 126.07 12.0687 125.733 11.79C125.395 11.4967 124.963 11.35 124.435 11.35C123.98 11.35 123.613 11.4747 123.335 11.724C123.056 11.9587 122.917 12.3033 122.917 12.758C122.917 13.2567 123.151 13.6453 123.621 13.924C124.09 14.2027 124.823 14.5033 125.821 14.826C126.818 15.1633 127.625 15.486 128.241 15.794C128.871 16.102 129.414 16.5493 129.869 17.136C130.323 17.7227 130.551 18.478 130.551 19.402C130.551 20.282 130.323 21.0813 129.869 21.8C129.429 22.5187 128.783 23.0907 127.933 23.516C127.082 23.9413 126.077 24.154 124.919 24.154ZM132.228 16.256C132.228 14.7307 132.558 13.374 133.218 12.186C133.878 10.9833 134.795 10.052 135.968 9.392C137.156 8.71733 138.498 8.38 139.994 8.38C141.827 8.38 143.397 8.864 144.702 9.832C146.007 10.8 146.88 12.12 147.32 13.792H143.184C142.876 13.1467 142.436 12.6553 141.864 12.318C141.307 11.9807 140.669 11.812 139.95 11.812C138.791 11.812 137.853 12.2153 137.134 13.022C136.415 13.8287 136.056 14.9067 136.056 16.256C136.056 17.6053 136.415 18.6833 137.134 19.49C137.853 20.2967 138.791 20.7 139.95 20.7C140.669 20.7 141.307 20.5313 141.864 20.194C142.436 19.8567 142.876 19.3653 143.184 18.72H147.32C146.88 20.392 146.007 21.712 144.702 22.68C143.397 23.6333 141.827 24.11 139.994 24.11C138.498 24.11 137.156 23.78 135.968 23.12C134.795 22.4453 133.878 21.514 133.218 20.326C132.558 19.138 132.228 17.7813 132.228 16.256ZM153.386 8.556V24H149.624V8.556H153.386Z" fill="white"/>
<path d="M28.1168 27L22.2772 22.2139L25.3354 19.7039L28.1168 21.987L38.9482 13.1239L42 15.6357L28.1168 26.9982V27ZM19.4655 22.7262H0V19.181H19.4655V22.7262ZM28.1168 15.6357H0V12.0905H28.1168V15.6357ZM28.1168 8.54524H0V5H28.1168V8.54524Z" fill="#60C4F2"/>
</svg>
