<svg width="22" height="22" viewBox="0 0 22 22" fill="none" xmlns="http://www.w3.org/2000/svg">
<path d="M22 22H20.4286V18.0714C20.4273 17.0299 20.013 16.0314 19.2765 15.2949C18.5401 14.5584 17.5415 14.1441 16.5 14.1429V12.5714C17.9582 12.5731 19.3562 13.1531 20.3872 14.1842C21.4183 15.2153 21.9983 16.6132 22 18.0714V22ZM15.7143 22H14.1429V18.0714C14.1416 17.0299 13.7273 16.0314 12.9908 15.2949C12.2543 14.5584 11.2558 14.1441 10.2143 14.1429H5.5C4.45846 14.1441 3.45994 14.5584 2.72346 15.2949C1.98698 16.0314 1.57268 17.0299 1.57143 18.0714V22H0V18.0714C0.00166364 16.6132 0.581661 15.2153 1.61275 14.1842C2.64384 13.1531 4.04182 12.5731 5.5 12.5714H10.2143C11.6725 12.5731 13.0704 13.1531 14.1015 14.1842C15.1326 15.2153 15.7126 16.6132 15.7143 18.0714V22ZM14.1429 0V1.57143C15.1848 1.57143 16.184 1.98533 16.9208 2.72208C17.6575 3.45883 18.0714 4.45808 18.0714 5.5C18.0714 6.54192 17.6575 7.54117 16.9208 8.27792C16.184 9.01467 15.1848 9.42857 14.1429 9.42857V11C15.6015 11 17.0005 10.4205 18.0319 9.38909C19.0634 8.35764 19.6429 6.95869 19.6429 5.5C19.6429 4.04131 19.0634 2.64236 18.0319 1.61091C17.0005 0.579463 15.6015 0 14.1429 0V0ZM7.85714 1.57143C8.63414 1.57143 9.39369 1.80184 10.0397 2.23351C10.6858 2.66519 11.1893 3.27875 11.4867 3.9966C11.784 4.71445 11.8618 5.50436 11.7102 6.26643C11.5586 7.02849 11.1845 7.7285 10.6351 8.27792C10.0856 8.82734 9.38564 9.2015 8.62357 9.35309C7.8615 9.50467 7.0716 9.42687 6.35374 9.12953C5.63589 8.83218 5.02233 8.32865 4.59065 7.6826C4.15898 7.03655 3.92857 6.277 3.92857 5.5C3.92857 4.45808 4.34247 3.45883 5.07922 2.72208C5.81597 1.98533 6.81522 1.57143 7.85714 1.57143M7.85714 0C6.76935 0 5.70598 0.322569 4.80151 0.926917C3.89704 1.53126 3.19209 2.39025 2.77581 3.39524C2.35952 4.40023 2.2506 5.5061 2.46282 6.573C2.67504 7.63989 3.19887 8.6199 3.96806 9.38909C4.73724 10.1583 5.71725 10.6821 6.78415 10.8943C7.85104 11.1065 8.95691 10.9976 9.9619 10.5813C10.9669 10.1651 11.8259 9.46011 12.4302 8.55564C13.0346 7.65117 13.3571 6.5878 13.3571 5.5C13.3571 4.04131 12.7777 2.64236 11.7462 1.61091C10.7148 0.579463 9.31583 0 7.85714 0V0Z" fill="white" fill-opacity="0.7"/>
</svg>
